inDegrees=no
num_controls=7
num_derivatives=13
num_iterations=116
num_multipliers=7
num_parameters=0
num_slacks=7
num_states=26
objective=0.516806
objective_accelerations=0.039336
objective_balance=0.002245
objective_effort=0.043793
objective_height=0.419779
objective_ligament=0.011653
solver_duration=1561.973909
status=Solve_Succeeded
success=true
DataType=double
version=3
OpenSimVersion=4.5
endheader
time	/jointset/ground_pelvis/pelvis_tilt/value	/jointset/ground_pelvis/pelvis_tx/value	/jointset/ground_pelvis/pelvis_ty/value	/jointset/hip_l/hip_flexion_l/value	/jointset/hip_l/hip_adduction_l/value	/jointset/hip_l/hip_rotation_l/value	/jointset/back/lumbar_extension/value	/jointset/patellofemoral_l/patellar_flexion_l/value	/jointset/knee_l/knee_flexion_l/value	/jointset/knee_l/knee_adduction_l/value	/jointset/knee_l/knee_rotation_l/value	/jointset/ankle_l/ankle_angle_l/value	/jointset/subtalar_l/subtalar_angle_l/value	/jointset/ground_pelvis/pelvis_tilt/speed	/jointset/ground_pelvis/pelvis_tx/speed	/jointset/ground_pelvis/pelvis_ty/speed	/jointset/hip_l/hip_flexion_l/speed	/jointset/hip_l/hip_adduction_l/speed	/jointset/hip_l/hip_rotation_l/speed	/jointset/back/lumbar_extension/speed	/jointset/patellofemoral_l/patellar_flexion_l/speed	/jointset/knee_l/knee_flexion_l/speed	/jointset/knee_l/knee_adduction_l/speed	/jointset/knee_l/knee_rotation_l/speed	/jointset/ankle_l/ankle_angle_l/speed	/jointset/subtalar_l/subtalar_angle_l/speed	/forceset/tau_hip_flexion_l	/forceset/tau_hip_adduction_l	/forceset/tau_hip_rotation_l	/forceset/tau_knee_flexion_l	/forceset/tau_ankle_angle_l	/forceset/tau_subtalar_angle_l	/forceset/tau_lumbar_extension	lambda_cid13_p0	lambda_cid13_p1	lambda_cid13_p2	lambda_cid13_p3	lambda_cid13_p4	lambda_cid13_p5	lambda_cid14_p0	/jointset/ground_pelvis/pelvis_tilt/accel	/jointset/ground_pelvis/pelvis_tx/accel	/jointset/ground_pelvis/pelvis_ty/accel	/jointset/hip_l/hip_flexion_l/accel	/jointset/hip_l/hip_adduction_l/accel	/jointset/hip_l/hip_rotation_l/accel	/jointset/back/lumbar_extension/accel	/jointset/patellofemoral_l/patellar_flexion_l/accel	/jointset/knee_l/knee_flexion_l/accel	/jointset/knee_l/knee_adduction_l/accel	/jointset/knee_l/knee_rotation_l/accel	/jointset/ankle_l/ankle_angle_l/accel	/jointset/subtalar_l/subtalar_angle_l/accel	gamma_cid13_p0	gamma_cid13_p1	gamma_cid13_p2	gamma_cid13_p3	gamma_cid13_p4	gamma_cid13_p5	gamma_cid14_p0
0.5	-0.1202756137796706	-0.05657075717404397	0.8249049715133161	0.8901601454583096	-0.3226409652165436	-0.1254447490910884	-0.778747675564943	0.7845460122241888	0.7845460122242096	-0.1065697817839264	-0.1744764090250616	0.06892222090640476	-0.006450169113064867	-0.2089729696336852	-0.2104635842021537	-0.3380478272890657	1.491954590173004	-0.04156900681999406	0.4497335143445887	-0.8373606729718452	1.420506023606326	1.420506023606307	0.1315022666127129	2.716402284365073e-05	0.2266017453487446	0.0264345089310969	-0.2824119044795542	0.01670670763933804	-0.003588337587998477	-0.2090499539387003	0.1127702525662541	0.0538189932974632	0.330210732462079	-8.215794746832568	-23.41902451377424	4.974366997886174	-8.842440811793658	-703.6539920437968	-80.72347494755191	-15.03687251688208	0.2698323841167197	0.6381873304287997	-0.1107573490096995	-1.426252938584563	0.2181158555323299	-0.3727873059032695	1.705777548444067	-1.136323466605386	-1.136323466605387	-0.2759639875119002	0.008831105087222655	-0.03179604886775393	0.2277191954227096	-1.031892169986288e-07	-3.253237987912014e-07	4.14858337781691e-07	6.445232673818452e-09	-1.280634822529327e-07	-4.377672926272488e-08	-1.019061921756666e-07
0.51	-0.1223514109371087	-0.05864333498404358	0.8215197321394762	0.9050058993949882	-0.3230462131059161	-0.1209663234723518	-0.7870351646474728	0.7986919379339874	0.7986919379340085	-0.1052697433667049	-0.1744759429002672	0.07118601190616991	-0.006175134968962198	-0.2061421512483484	-0.2040385027263738	-0.338920300596506	1.476966420954555	-0.03947174891457995	0.4458805139008692	-0.8200540494767984	1.408465167543103	1.408465167543102	0.1285239815273876	6.465690107056822e-05	0.2261183949391913	0.02857171258502263	-0.2889632715198233	0.01712224525079796	-0.003810459375719881	-0.2115608969656034	0.1131965883104917	0.05419101138483518	0.3365102392751538	-8.307082514674322	-23.51960761872073	4.939001042021993	-8.93008487809983	-707.6724109571769	-80.59040161372923	-14.51881287013281	0.2963408395828911	0.646696967984543	-0.06355882796824427	-1.569580969876859	0.2068050713948896	-0.4023244844169383	1.755568858633713	-1.270037401404119	-1.270037401401323	-0.3059968861979516	0.001115503862739167	-0.06231962428111612	0.2065986291048099	-1.229236145851765e-07	-2.005424244776459e-07	5.88772573695866e-07	3.913963601297694e-08	-1.385433195877044e-07	-3.151937473372589e-08	-1.076824818870112e-07
0.52	-0.1243975730559252	-0.060651256296919	0.8181281547312903	0.919694875228202	-0.3234302335535645	-0.1165285814722149	-0.7951470946733324	0.8127110409381088	0.8127110409381308	-0.1039989350237666	-0.1744751204217568	0.0734438263843831	-0.00587875325257481	-0.2030459619093825	-0.1975322847773155	-0.3393154341582283	1.460598969480033	-0.03732351847521601	0.4415967906247239	-0.8022488616378027	1.395141482470946	1.395141482470964	0.1256562517558583	9.843476620065571e-05	0.2254064410383584	0.03070402338804057	-0.2955146385600927	0.01753778286225741	-0.004032581163433957	-0.214071839992507	0.1136229240547291	0.05456302947220631	0.3428097460882284	-8.401279528377058	-23.62060017031391	4.904750358644431	-9.047925263839387	-711.7609903446429	-80.49284173525768	-13.9980655320518	0.3229065748425425	0.6544146250844661	-0.0152893998661206	-1.702109389799174	0.2283103623222919	-0.4589318723884133	1.805490417233806	-1.392889268392171	-1.392889268392173	-0.2538529247526814	0.008088102468916048	-0.07751674712364447	0.226740625241152	-1.213334099889242e-07	-1.491975590454515e-07	6.124926005260272e-07	4.597674344680916e-08	-1.301580574849958e-07	-1.679313936992172e-08	-1.040475914933448e-07
0.53	-0.126411753056389	-0.06259381951715971	0.8147349889154601	0.9342136996235548	-0.3237926417043565	-0.1121353832438311	-0.8030783790857994	0.8265904810238943	0.8265904810239162	-0.1027567230177917	-0.1744737543178252	0.07569321215959969	-0.005561273302250805	-0.1997742771883763	-0.1909775106524323	-0.3392395412750251	1.442970514096997	-0.03516518459325659	0.4369922945190169	-0.7839171010991133	1.380526032630443	1.38052603263045	0.1227638710131011	0.0001755040224006019	0.2244131148497565	0.03276702100074078	-0.3018250334181521	0.01789822008330855	-0.00423271426091068	-0.2165577567758486	0.1137707419951611	0.05482377307752997	0.3488415797291354	-8.58699428785676	-23.6556951984933	4.858226377852191	-8.952103898624092	-715.7278638453886	-80.31128260920691	-13.47530260682633	0.331650584101862	0.6564460125401199	0.03073164159603761	-1.822539181310959	0.2084645752740232	-0.4688890398443513	1.860656835654446	-1.528927722569531	-1.528927722571217	-0.3102750782718298	0.007749334750767833	-0.118882290685868	0.1922840483117497	-1.180032966959661e-07	-1.066410533793071e-07	6.233367134646845e-07	5.061467129687358e-08	-1.211326390820902e-07	-3.119983115984242e-09	-9.9796383974217e-08
